<?xml version="1.0" encoding="utf-8"?>
<!-- Generator: Adobe Illustrator 16.0.0, SVG Export Plug-In . SVG Version: 6.00 Build 0)  -->
<!DOCTYPE svg PUBLIC "-//W3C//DTD SVG 1.1//EN" "http://www.w3.org/Graphics/SVG/1.1/DTD/svg11.dtd">
<svg version="1.1" id="Icons" xmlns="http://www.w3.org/2000/svg" xmlns:xlink="http://www.w3.org/1999/xlink" x="0px" y="0px"
	 width="16px" height="16px" viewBox="0 0 16 16" enable-background="new 0 0 16 16" xml:space="preserve">
<path fill="#FFFFFF" d="M8,1C4.15,1,1,4.15,1,8c0,3.85,3.15,7,7,7c3.85,0,7-3.15,7-7C15,4.15,11.85,1,8,1z M9.85,8.35l-2.5,2.5
	C7.25,10.95,7.15,11,7,11s-0.25-0.05-0.35-0.15c-0.2-0.199-0.2-0.5,0-0.699L8.8,8L6.65,5.85c-0.2-0.2-0.2-0.5,0-0.7
	c0.2-0.2,0.5-0.2,0.7,0l2.5,2.5C10.05,7.85,10.05,8.15,9.85,8.35z"/>
</svg>
